# xmcd
#
# Track frame offsets:
#	150
#	16833
#	31746
#	49571
#	63449
#	83312
#	100957
#	117150
#	136298
#	159568
#	181872
#	197979
#	223400
#	238112
#
# Disc length: 3422 seconds
#
# Revision: 1
# Processed by: cddbd v1.5.2PL0 Copyright (c) Steve Scherf et al.
# Submitted via: audiograbber 1.83.01
#
DISCID=b50d5c0e
DTITLE=Faith Hill - There You'll Be
DYEAR=2001
DGENRE=Country Pop
TTITLE0=There You'll Be
TTITLE1=This Kiss
TTITLE2=Breathe (Tin Tin Out Radio Mix)
TTITLE3=The Way You Love Me
TTITLE4=Let Me Let Go
TTITLE5=Piece of My Heart
TTITLE6=If My Heart Had Wings
TTITLE7=There Will Come a Day
TTITLE8=Love Will Always Win
TTITLE9=My Wild Frontier
TTITLE10=You Give Me Love
TTITLE11=Somewhere Down the Road
TTITLE12=Over the Rainbow
TTITLE13=Breathe
EXTD=
EXTT0=
EXTT1=
EXTT2=
EXTT3=
EXTT4=
EXTT5=
EXTT6=
EXTT7=
EXTT8=
EXTT9=
EXTT10=
EXTT11=
EXTT12=
EXTT13=
PLAYORDER=
